<svg width="323" height="172" viewBox="0 0 323 172" fill="none" xmlns="http://www.w3.org/2000/svg">
<g filter="url(#filter0_d_109_365)">
<path d="M43 15C43 6.71573 49.7157 0 58 0H304C312.284 0 319 6.71573 319 15V148C319 156.284 312.284 163 304 163H58C49.7157 163 43 156.284 43 148V15Z" fill="#292626"/>
<path d="M58 0.5H304C312.008 0.5 318.5 6.99187 318.5 15V148C318.5 156.008 312.008 162.5 304 162.5H58C49.9919 162.5 43.5 156.008 43.5 148V15C43.5 6.99188 49.9919 0.5 58 0.5Z" stroke="black"/>
</g>
<g filter="url(#filter1_d_109_365)">
<path d="M49.4946 28.05C36.0877 20.4519 41.4802 0 56.8904 0H304C312.284 0 319 6.71573 319 15V147.009C319 158.331 306.937 165.572 296.946 160.247L59.1959 33.548L49.4946 28.05Z" fill="#3D3A6A"/>
<path d="M56.8904 0.5H304C312.008 0.5 318.5 6.99187 318.5 15V147.009C318.5 157.954 306.839 164.953 297.181 159.806L59.4424 33.113L59.4368 33.1098L49.7411 27.615C36.7811 20.2702 41.9938 0.5 56.8904 0.5Z" stroke="black"/>
</g>
<defs>
<filter id="filter0_d_109_365" x="39" y="0" width="284" height="171" filterUnits="userSpaceOnUse" color-interpolation-filters="sRGB">
<feFlood flood-opacity="0" result="BackgroundImageFix"/>
<feColorMatrix in="SourceAlpha" type="matrix" values="0 0 0 0 0 0 0 0 0 0 0 0 0 0 0 0 0 0 127 0" result="hardAlpha"/>
<feOffset dy="4"/>
<feGaussianBlur stdDeviation="2"/>
<feComposite in2="hardAlpha" operator="out"/>
<feColorMatrix type="matrix" values="0 0 0 0 0 0 0 0 0 0 0 0 0 0 0 0 0 0 0.25 0"/>
<feBlend mode="normal" in2="BackgroundImageFix" result="effect1_dropShadow_109_365"/>
<feBlend mode="normal" in="SourceGraphic" in2="effect1_dropShadow_109_365" result="shape"/>
</filter>
<filter id="filter1_d_109_365" x="37.8655" y="0" width="285.135" height="170.03" filterUnits="userSpaceOnUse" color-interpolation-filters="sRGB">
<feFlood flood-opacity="0" result="BackgroundImageFix"/>
<feColorMatrix in="SourceAlpha" type="matrix" values="0 0 0 0 0 0 0 0 0 0 0 0 0 0 0 0 0 0 127 0" result="hardAlpha"/>
<feOffset dy="4"/>
<feGaussianBlur stdDeviation="2"/>
<feComposite in2="hardAlpha" operator="out"/>
<feColorMatrix type="matrix" values="0 0 0 0 0 0 0 0 0 0 0 0 0 0 0 0 0 0 0.25 0"/>
<feBlend mode="normal" in2="BackgroundImageFix" result="effect1_dropShadow_109_365"/>
<feBlend mode="normal" in="SourceGraphic" in2="effect1_dropShadow_109_365" result="shape"/>
</filter>
</defs>
</svg>